<svg xmlns="http://www.w3.org/2000/svg" width="16.332" height="20.109" viewBox="0 0 16.332 20.109">
  <g id="Bote_basura_blanco" data-name="Bote basura blanco" transform="translate(0.003 0.002)">
    <path id="Trazado_88" data-name="Trazado 88" d="M222.869,154.7a.471.471,0,0,0-.471.471v8.9a.471.471,0,1,0,.942,0v-8.9A.471.471,0,0,0,222.869,154.7Zm0,0" transform="translate(-211.928 -147.419)" fill="#fcfcfc"/>
    <path id="Trazado_89" data-name="Trazado 89" d="M104.869,154.7a.471.471,0,0,0-.471.471v8.9a.471.471,0,1,0,.942,0v-8.9A.471.471,0,0,0,104.869,154.7Zm0,0" transform="translate(-99.485 -147.419)" fill="#fcfcfc"/>
    <path id="Trazado_90" data-name="Trazado 90" d="M1.334,5.985v11.6a2.6,2.6,0,0,0,.691,1.792,2.319,2.319,0,0,0,1.683.728h8.91A2.319,2.319,0,0,0,14.3,19.38a2.6,2.6,0,0,0,.691-1.792V5.985a1.8,1.8,0,0,0-.462-3.538H12.119V1.859A1.85,1.85,0,0,0,10.254,0H6.072a1.85,1.85,0,0,0-1.865,1.86v.589H1.8a1.8,1.8,0,0,0-.462,3.538ZM12.618,19.166H3.708a1.491,1.491,0,0,1-1.432-1.578V6.027H14.05V17.588a1.491,1.491,0,0,1-1.432,1.578ZM5.149,1.859A.907.907,0,0,1,6.072.94h4.182a.907.907,0,0,1,.923.918v.589H5.149ZM1.8,3.389H14.53a.848.848,0,0,1,0,1.7H1.8a.848.848,0,1,1,0-1.7Zm0,0" transform="translate(0 0)" fill="#fcfcfc"/>
    <path id="Trazado_91" data-name="Trazado 91" d="M163.869,154.7a.471.471,0,0,0-.471.471v8.9a.471.471,0,1,0,.942,0v-8.9A.471.471,0,0,0,163.869,154.7Zm0,0" transform="translate(-155.706 -147.419)" fill="#fcfcfc"/>
  </g>
</svg>
