<svg id="Capa_1" data-name="Capa 1" xmlns="http://www.w3.org/2000/svg" viewBox="0 0 244.89 104.65"><defs><style>.cls-1,.cls-6,.cls-7{fill:#fff;}.cls-2,.cls-3,.cls-4{fill:none;stroke:#fff;stroke-miterlimit:10;}.cls-2{stroke-width:2px;}.cls-3{stroke-width:4px;}.cls-5,.cls-6,.cls-7{isolation:isolate;}.cls-6,.cls-7{font-size:40px;font-family:CoolveticaCondensedRg-Regular, Coolvetica;}.cls-6{letter-spacing:-0.02em;}</style></defs><title>Logo en blanco</title><g id="Capa_1-2" data-name="Capa 1-2"><g id="Header_con_logo" data-name="Header con logo"><g id="Logo-bn"><g id="Grupo_29" data-name="Grupo 29"><g id="Grupo_28" data-name="Grupo 28"><g id="Grupo_26" data-name="Grupo 26"><g id="Grupo_25" data-name="Grupo 25"><g id="Grupo_23" data-name="Grupo 23"><ellipse id="Elipse_18" data-name="Elipse 18" class="cls-1" cx="36.7" cy="10.29" rx="2.49" ry="5.56" transform="translate(9.42 36.96) rotate(-60)"/><path id="Trazado_31" data-name="Trazado 31" class="cls-2" d="M32.32,8.23S30.43,5,24.3,2.79A32.39,32.39,0,0,0,12.35,1C4,1.55-1.47,13.09,5,27.25c5.66,12.39,30.77,54.14,43.68,57.41" transform="translate(-0.01 0.02)"/></g><g id="Grupo_24" data-name="Grupo 24"><ellipse id="Elipse_19" data-name="Elipse 19" class="cls-1" cx="60.75" cy="10.3" rx="5.56" ry="2.49" transform="translate(2.98 31.78) rotate(-30)"/><path id="Trazado_32" data-name="Trazado 32" class="cls-2" d="M65.13,8.23S67,5,73.15,2.79A32.44,32.44,0,0,1,85.11,1c8.36.52,13.81,12.06,7.33,26.22C86.78,39.64,61.67,81.39,48.76,84.66" transform="translate(-0.01 0.02)"/></g><path id="Trazado_33" data-name="Trazado 33" class="cls-1" d="M48,84.52a.77.77,0,0,0,1.5,0Z" transform="translate(-0.01 0.02)"/></g><path id="Trazado_34" data-name="Trazado 34" class="cls-3" d="M48.76,84.86s5.16,10.46-9,5.3S10,80,5.55,84.86s-7.06,13.59,7.07,15.76,31.25,3.13,37.91,0,22.69-17.8,22.69-17.8" transform="translate(-0.01 0.02)"/><circle id="Elipse_20" data-name="Elipse 20" class="cls-3" cx="78.03" cy="78.15" r="6.79"/><circle id="Elipse_21" data-name="Elipse 21" class="cls-1" cx="78.03" cy="78.15" r="4.08"/></g><g id="Grupo_27" data-name="Grupo 27"><path id="Trazado_35" data-name="Trazado 35" class="cls-2" d="M58.84,29.25a.55.55,0,0,1-.23.38A21.08,21.08,0,0,0,53.06,24a5.55,5.55,0,0,0-1.38-.79c-.13,0-.13-.27-.27-.27s-.68-.14-.95,0c-.41.41-.14,1,.14,1.36,1.9,2.31,4.21,5.3,2.71,8.29-.68,1.49-1.9,2.71-2.71,4.35-1,2-.14,4.21,1.35,5.84.28.13.41.41.68.68A11.8,11.8,0,0,0,58.34,45C59,45,60,45.25,60,46.07c.14.54-.41,1.09-.54,1.63-1,4.21-1.9,8.15-2.58,12.36-.41,2.86-.82,5.71-1,8.56-.13,1.63-.27,3.4-.27,5a17.44,17.44,0,0,0,0,5.3c.14.27.41.68.54.94" transform="translate(-0.01 0.02)"/><path id="Trazado_36" data-name="Trazado 36" class="cls-2" d="M65.2,27.66a9.49,9.49,0,0,0-6.59,2,1.64,1.64,0,0,1-.39-.72" transform="translate(-0.01 0.02)"/><path id="Trazado_37" data-name="Trazado 37" class="cls-2" d="M70.4,63.14c-1.6-5.25-.64-11-.81-16.44l-.17-.84H71c3.56-.5,7.1-2.27,8.59-5.66a4.52,4.52,0,0,0,.27-4.35c-1-1.63-2.31-3-3.12-4.62-1.23-2.72,1.49-4.89,2.44-7.34.27-.54.82-.68,1-1.22a.43.43,0,0,0-.41-.41c-.54,0-1,.54-1.49.81a5,5,0,0,0-2,1.09A17,17,0,0,0,73,27.83c-.27.41-.68,1.09-1.36,1-.27-.13-.68-.27-1-.41-1.63-.95-3.53-.4-5.37-.74" transform="translate(-0.01 0.02)"/><path id="Trazado_38" data-name="Trazado 38" class="cls-2" d="M41.64,80.31C39.18,70.25,36.74,60.47,35,50a9.12,9.12,0,0,1-.14-2.71,6.62,6.62,0,0,0,4.89-3.94,4.25,4.25,0,0,0-.13-2.59,65.42,65.42,0,0,1-2.72-6.25c0-.27-.27-.67-.14-1.08,1,.68,1.36,2,2,3,.41.54.82,1.49,1.63,1.22s.82-1.22,1-2c.14-2.17.28-4.35,1.9-6.11a3.78,3.78,0,0,0,1-3.4c-2.44-1.5-5.3-1.77-8-2a30.45,30.45,0,0,0-7.07.41" transform="translate(-0.01 0.02)"/><path id="Trazado_39" data-name="Trazado 39" class="cls-2" d="M22.11,55.81a67.6,67.6,0,0,0,1.31-8.38c-2.58-.82-5.71-2.72-4.89-6,.68-2.72,2.31-5.16,2.85-7.88-.13,0-.13.13-.27.13C19.89,35,19.61,37,17.85,37.76c-.14,0-.41-.27-.54-.41-.82-1.76-.41-3.67-1-5.57a2.72,2.72,0,0,0-.81-1.36,5.18,5.18,0,0,1-1.63-4.35C18.53,23.78,24,23.65,29,24.46" transform="translate(-0.01 0.02)"/></g></g><path id="Trazado_40" data-name="Trazado 40" class="cls-4" d="M47.33,40h6.12" transform="translate(-0.01 0.02)"/><path id="Trazado_41" data-name="Trazado 41" class="cls-4" d="M47.33,38.27a21,21,0,0,1,3.17-.16,6.68,6.68,0,0,1,3,.74" transform="translate(-0.01 0.02)"/><path id="Trazado_42" data-name="Trazado 42" class="cls-4" d="M47.74,41.59a1,1,0,0,0,.69.28,7.57,7.57,0,0,0,5.15-1.24" transform="translate(-0.01 0.02)"/></g><path id="Trazado_43" data-name="Trazado 43" class="cls-4" d="M77,40.09h6.53" transform="translate(-0.01 0.02)"/><path id="Trazado_44" data-name="Trazado 44" class="cls-4" d="M77.09,38.44a20.24,20.24,0,0,1,3.3-.19,6.29,6.29,0,0,1,3.08.89" transform="translate(-0.01 0.02)"/><path id="Trazado_45" data-name="Trazado 45" class="cls-4" d="M76.94,41.18a1.27,1.27,0,0,0,.74.34,9.34,9.34,0,0,0,5.84-.73" transform="translate(-0.01 0.02)"/><g id="PatitasPet_s" data-name="PatitasPet s"><g class="cls-5"><text class="cls-6" transform="translate(94.89 75)">P</text><text class="cls-7" transform="translate(108.53 75)">atitas</text><text class="cls-6" transform="translate(184.25 75)">P</text><text class="cls-7" transform="translate(197.93 75)">et</text><text class="cls-6" transform="translate(226.01 75)">’</text><text class="cls-7" transform="translate(230.77 75)">s</text></g></g></g></g></g></svg>