<svg xmlns="http://www.w3.org/2000/svg" width="269.028" height="96.739" viewBox="0 0 269.028 96.739">
  <g id="logoN" transform="translate(-1432.335 977.84)">
    <g id="Grupo_29" data-name="Grupo 29" transform="translate(1434.354 -976.831)">
      <g id="Grupo_28" data-name="Grupo 28" transform="translate(0 0)">
        <g id="Grupo_26" data-name="Grupo 26">
          <g id="Grupo_25" data-name="Grupo 25" transform="translate(0.137)">
            <g id="Grupo_23" data-name="Grupo 23">
              <path id="Trazado_46" data-name="Trazado 46" d="M2.186,0c1.209,0,2.194,2.2,2.2,4.905S3.418,9.807,2.209,9.8.015,7.6.008,4.9.977,0,2.186,0Z" transform="matrix(0.5, -0.866, 0.866, 0.5, 25.147, 7.623)"/>
              <path id="Trazado_31" data-name="Trazado 31" d="M1462.121-970.469s-1.667-2.853-7.076-4.772a28.836,28.836,0,0,0-10.555-1.551c-7.382.459-12.2,10.587-6.477,23.024,5,10.875,27.166,47.538,38.56,50.4" transform="translate(-1435.494 976.831)" fill="none" stroke="#000" stroke-miterlimit="10" stroke-width="2"/>
            </g>
            <g id="Grupo_24" data-name="Grupo 24" transform="translate(41.138)">
              <path id="Trazado_47" data-name="Trazado 47" d="M4.9.008C7.6.015,9.8,1,9.8,2.209S7.615,4.393,4.909,4.386.006,3.395,0,2.186,2.192,0,4.9.008Z" transform="matrix(0.866, -0.5, 0.5, 0.866, 5.241, 8.721)"/>
              <path id="Trazado_32" data-name="Trazado 32" d="M1792.946-970.469s1.667-2.853,7.076-4.772a28.834,28.834,0,0,1,10.554-1.551c7.382.459,12.2,10.587,6.477,23.024-5,10.875-27.166,47.538-38.56,50.4" transform="translate(-1778.494 976.831)" fill="none" stroke="#020202" stroke-miterlimit="10" stroke-width="2"/>
            </g>
            <path id="Trazado_33" data-name="Trazado 33" d="M1773-362a.672.672,0,0,0,.659.536.672.672,0,0,0,.66-.536Z" transform="translate(-1732.521 435.345)"/>
          </g>
          <path id="Trazado_34" data-name="Trazado 34" d="M1475.63-372.711s4.557,9.186-7.916,4.652-26.266-8.947-30.224-4.652-6.237,11.929,6.237,13.838,27.585,2.744,33.463,0,20.029-15.628,20.029-15.628" transform="translate(-1434.354 446.354)" fill="none" stroke="#000" stroke-miterlimit="10" stroke-width="4"/>
          <ellipse id="Elipse_20" data-name="Elipse 20" cx="5.997" cy="5.965" rx="5.997" ry="5.965" transform="translate(61.125 61.774)" fill="none" stroke="#000" stroke-miterlimit="10" stroke-width="4"/>
          <ellipse id="Elipse_21" data-name="Elipse 21" cx="3.598" cy="3.579" rx="3.598" ry="3.579" transform="translate(63.524 64.16)"/>
        </g>
        <g id="Grupo_27" data-name="Grupo 27" transform="translate(10.494 18.709)">
          <path id="Trazado_35" data-name="Trazado 35" d="M1796.635-809.874a.462.462,0,0,1-.2.328,18.583,18.583,0,0,0-4.9-4.919,5.089,5.089,0,0,0-1.219-.688c-.12,0-.12-.239-.24-.239-.24,0-.6-.119-.839,0-.36.358-.12.835.12,1.193,1.679,2.028,3.718,4.652,2.4,7.277-.6,1.312-1.679,2.386-2.4,3.817-.84,1.789-.12,3.7,1.2,5.13.24.119.36.358.6.6a10.564,10.564,0,0,0,5.037,1.312c.6,0,1.439.239,1.439.954.12.477-.36.954-.48,1.431-.839,3.7-1.679,7.158-2.279,10.856-.36,2.505-.72,5.01-.84,7.516-.12,1.432-.24,2.982-.24,4.414a15.13,15.13,0,0,0,0,4.652c.12.239.36.6.475.828" transform="translate(-1756.953 815.988)" fill="none" stroke="#020202" stroke-miterlimit="10" stroke-width="2"/>
          <path id="Trazado_36" data-name="Trazado 36" d="M1854.287-780.714a8.4,8.4,0,0,0-5.817,1.73,1.393,1.393,0,0,1-.345-.627" transform="translate(-1808.992 785.426)" fill="none" stroke="#020202" stroke-miterlimit="10" stroke-width="2"/>
          <path id="Trazado_37" data-name="Trazado 37" d="M1904.088-784.138c-1.409-4.607-.569-9.617-.718-14.433l-.151-.731,1.351.027c3.147-.444,6.265-2,7.584-4.977a3.93,3.93,0,0,0,.24-3.817c-.84-1.431-2.039-2.624-2.758-4.056-1.08-2.386,1.319-4.294,2.159-6.442.24-.477.719-.6.839-1.074a.382.382,0,0,0-.36-.358c-.48,0-.84.477-1.319.716a4.332,4.332,0,0,0-1.8.954,14.989,14.989,0,0,0-2.879,3.221c-.24.358-.6.954-1.2.835-.24-.119-.6-.239-.84-.358-1.439-.835-3.118-.358-4.737-.656" transform="translate(-1854.206 820)" fill="none" stroke="#020202" stroke-miterlimit="10" stroke-width="2"/>
          <path id="Trazado_38" data-name="Trazado 38" d="M1645.046-757.938c-2.171-8.832-4.33-17.421-5.889-26.607a7.989,7.989,0,0,1-.12-2.386,5.815,5.815,0,0,0,4.318-3.459,3.673,3.673,0,0,0-.12-2.267c-.839-1.789-1.679-3.579-2.4-5.487,0-.239-.24-.6-.12-.954.84.6,1.2,1.789,1.8,2.624.36.477.72,1.312,1.439,1.074s.72-1.074.84-1.789c.12-1.909.24-3.817,1.679-5.368a3.325,3.325,0,0,0,.84-2.982c-2.159-1.312-4.677-1.551-7.076-1.789a27.4,27.4,0,0,0-6.237.358" transform="translate(-1620.549 808.881)" fill="none" stroke="#020202" stroke-miterlimit="10" stroke-width="2"/>
          <path id="Trazado_39" data-name="Trazado 39" d="M1529.107-779.424a58,58,0,0,0,1.156-7.358c-2.279-.716-5.037-2.386-4.318-5.249.6-2.386,2.039-4.533,2.519-6.919-.12,0-.12.119-.24.119-1.079,1.193-1.319,2.863-2.878,3.579-.12,0-.36-.239-.48-.358-.72-1.551-.36-3.221-.839-4.891a2.474,2.474,0,0,0-.72-1.193,4.542,4.542,0,0,1-1.439-3.817c4.078-2.028,8.875-2.147,13.349-1.432" transform="translate(-1521.85 808.852)" fill="none" stroke="#020202" stroke-miterlimit="10" stroke-width="2"/>
        </g>
      </g>
      <path id="Trazado_40" data-name="Trazado 40" d="M1768-690.04h5.4" transform="translate(-1727.983 724.252)" fill="none" stroke="#000" stroke-miterlimit="10" stroke-width="2"/>
      <path id="Trazado_41" data-name="Trazado 41" d="M1768-703.528a19.183,19.183,0,0,1,2.791-.14,5.908,5.908,0,0,1,2.606.653" transform="translate(-1727.983 736.264)" fill="none" stroke="#000" stroke-miterlimit="10" stroke-width="2"/>
      <path id="Trazado_42" data-name="Trazado 42" d="M1771-684.155a.938.938,0,0,0,.608.242,6.778,6.778,0,0,0,4.55-1.087" transform="translate(-1730.624 719.813)" fill="none" stroke="#000" stroke-miterlimit="10" stroke-width="2"/>
    </g>
    <path id="Trazado_43" data-name="Trazado 43" d="M1986-689h5.757" transform="translate(-485.483 -253.495)" fill="none" stroke="#000" stroke-miterlimit="10" stroke-width="2"/>
    <path id="Trazado_44" data-name="Trazado 44" d="M1987-702.459a17.6,17.6,0,0,1,2.915-.166,5.573,5.573,0,0,1,2.722.779" transform="translate(-486.363 -241.483)" fill="none" stroke="#000" stroke-miterlimit="10" stroke-width="2"/>
    <path id="Trazado_45" data-name="Trazado 45" d="M1985.889-683.492a1.113,1.113,0,0,0,.653.3,8.274,8.274,0,0,0,5.156-.638" transform="translate(-485.386 -258.049)" fill="none" stroke="#000" stroke-miterlimit="10" stroke-width="2"/>
    <text id="PatitasPet_s" data-name="PatitasPet’s" transform="translate(1516.363 -946.102)" font-size="35" font-family="CoolveticaCondensedRg-Regular, Coolvetica"><tspan x="0" y="34">PatitasPet’s</tspan></text>
  </g>
</svg>
