<svg xmlns="http://www.w3.org/2000/svg" xmlns:xlink="http://www.w3.org/1999/xlink" width="29.167" height="29.167" viewBox="0 0 29.167 29.167">
  <defs>
    <clipPath id="clip-path">
      <rect id="Rectángulo_3" data-name="Rectángulo 3" width="29.167" height="29.167" transform="translate(-119.5 -224)" fill="#707070" stroke="#707070" stroke-width="1"/>
    </clipPath>
  </defs>
  <g id="Grupo_35" data-name="Grupo 35" transform="translate(119.5 224)">
    <g id="Enmascarar_grupo_7" data-name="Enmascarar grupo 7" clip-path="url(#clip-path)">
      <g id="surface1" transform="translate(-115.74 -224)">
        <path id="Trazado_137" data-name="Trazado 137" d="M19.369,11.223V8.545a8.545,8.545,0,1,0-17.09,0v2.678A2.853,2.853,0,0,0,0,14.014v3.234a.57.57,0,1,0,1.139,0V14.014A1.711,1.711,0,0,1,2.848,12.3H18.8a1.711,1.711,0,0,1,1.709,1.709v12.3a1.712,1.712,0,0,1-1.139,1.611V24.5a.57.57,0,1,0-1.139,0v3.532H2.848a1.711,1.711,0,0,1-1.709-1.709v-4.5a.57.57,0,1,0-1.139,0v4.5a2.852,2.852,0,0,0,2.848,2.848H18.8a2.852,2.852,0,0,0,2.848-2.848v-12.3A2.853,2.853,0,0,0,19.369,11.223ZM6.494,11.166V8.545a4.33,4.33,0,0,1,8.659,0v2.621Zm9.8,0V8.545a5.469,5.469,0,0,0-10.938,0v2.621H3.418V8.545a7.406,7.406,0,0,1,14.812,0v2.621Zm0,0" fill="#707070"/>
        <path id="Trazado_138" data-name="Trazado 138" d="M.57,20.08a.569.569,0,1,0-.57-.57.57.57,0,0,0,.57.57Zm0,0" fill="#707070"/>
        <path id="Trazado_139" data-name="Trazado 139" d="M10.824,26.091a1.711,1.711,0,0,0,1.709-1.709V21.357a3.076,3.076,0,1,0-3.418-.01v3.035A1.711,1.711,0,0,0,10.824,26.091Zm-1.93-7.3a1.937,1.937,0,1,1,2.811,1.728.569.569,0,0,0-.312.508v3.352a.57.57,0,0,1-1.139,0V21.023a.57.57,0,0,0-.309-.506A1.931,1.931,0,0,1,8.894,18.794Zm0,0" fill="#707070"/>
        <path id="Trazado_140" data-name="Trazado 140" d="M18.8,22.73a.57.57,0,1,0-.4-.167A.573.573,0,0,0,18.8,22.73Zm0,0" fill="#707070"/>
      </g>
    </g>
  </g>
</svg>
