<svg id="Layer_1" enable-background="new 0 0 512 512" height="512" viewBox="0 0 512 512" width="512" xmlns="http://www.w3.org/2000/svg"><g><path d="m451.49 408.066h-75.539s-45.806 28.32-51.907 84.08c-.721 6.59 4.428 12.354 11.057 12.354h157.239c6.629 0 11.778-5.764 11.057-12.354-6.101-55.759-51.907-84.08-51.907-84.08z" fill="#c0694e"/><path d="m359.047 492.15c-.72 6.59 4.43 12.35 11.05 12.35h-35c-6.62 0-11.77-5.76-11.05-12.35 6.1-55.76 51.9-84.08 51.9-84.08h35c0-.001-45.8 28.32-51.9 84.08z" fill="#ae583e"/><path d="m336.297 474.24c0 16.44-13.33 29.76-29.76 29.76h-268.242c-16.44 0-29.76-13.32-29.76-29.76 0-52.37 29.75-98.271 73.71-120.941 4.83-2.5 9.84-4.71 15-6.62 14.69-5.43 30.6-8.41 47.27-8.41h55.8c16.66 0 32.58 2.98 47.26 8.41 5.16 1.91 10.16 4.12 15 6.62 43.961 22.66 73.722 68.56 73.722 120.941z" fill="#fff5f4"/><path d="m43.535 474.24c0 16.44 13.32 29.76 29.76 29.76h-35c-16.44 0-29.76-13.32-29.76-29.76 0-74.53 60.26-135.971 135.981-135.971h35c-75.721 0-135.981 61.44-135.981 135.971z" fill="#ebe0da"/><path d="m138.518 339.062v-50.757h67.789v50.757l-30.626 99.939c-.988 3.222-5.549 3.222-6.537 0z" fill="#ffdecf"/><circle cx="76.502" cy="211.967" fill="#ffcdbe" r="38.309"/><circle cx="268.324" cy="211.973" fill="#ffcdbe" r="38.309"/><path d="m172.413 338.471c54.642 0 98.937-44.296 98.937-98.937v-145.333c0-11.412-9.252-20.664-20.664-20.664h-156.546c-11.412 0-20.664 9.252-20.664 20.664v145.332c0 54.642 44.296 98.938 98.937 98.938z" fill="#ffeee5"/><path d="m436.554 430.36h-45.667c-33.314 0-60.571-27.257-60.571-60.571v-40.242c0-42.056 34.41-76.466 76.466-76.466h13.876c42.056 0 76.466 34.41 76.466 76.466v40.242c.001 33.314-27.256 60.571-60.57 60.571z" fill="#d29380"/><circle cx="89.746" cy="445" fill="#766d78" r="23.333"/><path d="m189.906 336.929c-5.68 1.01-11.52 1.54-17.49 1.54-54.64 0-98.941-44.29-98.941-98.93v-145.341c0-11.41 9.25-20.66 20.66-20.66h35c-11.41 0-20.66 9.25-20.66 20.66v145.341c0 48.66 35.14 89.12 81.431 97.39z" fill="#ffdecf"/><path d="m64.013 43.455c13.49-22.434 36.476-35.955 61.125-35.955h143.828c12.981 0 21.562 14.668 16.062 27.454l-6.609 15.364c-.676 1.809-1.371 3.574-2.081 5.299-.959 2.327.727 4.884 3.244 4.884 9.606 0 15.956 10.854 11.886 20.316l-4.89 11.369c-33.944 90.759-125.832 39.863-155.358 71.496-4.507 4.821-12.113 1.442-12.113-5.435v-20.161c0-4.104-3.499-7.361-7.589-7.021-17.906 1.488-33.094 5.212-43.042 15.87-6.09 6.515-16.369 1.949-16.369-7.345v-52.672c-.001-15.438 4.137-30.541 11.906-43.463z" fill="#766d78"/><path d="m279.816 107.138c-38.06 69.96-120.851 26.82-148.601 56.54-4.5 4.82-12.11 1.45-12.11-5.43v-20.16c0-4.11-3.5-7.36-7.59-7.02-17.9 1.48-33.09 5.21-43.04 15.87-6.09 6.51-16.37 1.95-16.37-7.35v-52.67c0-15.44 4.14-30.54 11.91-43.46 8.04-13.37 19.44-23.57 32.56-29.64-6.19 11.9-9.47 25.37-9.47 39.1v52.67c0 9.3 10.28 13.86 16.37 7.35 9.95-10.66 25.14-14.39 43.04-15.87 4.09-.34 7.59 2.91 7.59 7.02v20.16c0 6.88 7.61 10.25 12.11 5.43 20.871-22.36 72.901-3.48 113.601-22.54z" fill="#655e67"/><path d="m425.887 430.36h-35c-33.31 0-60.57-27.26-60.57-60.57v-40.24c0-42.06 34.41-76.47 76.47-76.47h13.87c3.58 0 7.11.25 10.57.74-37.11 5.17-65.91 37.25-65.91 75.73v40.24c0 33.309 27.26 60.57 60.57 60.57z" fill="#c97e67"/><g fill="#ae583e"><path d="m381.064 241.348c-.26-2.2-2.133-3.852-4.349-3.852h-44.415c-2.216 0-4.089 1.651-4.349 3.852-1.288 10.905-4.29 42.404 22.221 60.963 2.92 2.044 7.012 2.047 9.935-.004 26.439-18.56 22.244-50.054 20.957-60.959z"/><path d="m499.256 241.348c-.26-2.2-2.133-3.852-4.349-3.852h-44.415c-2.216 0-4.089 1.651-4.349 3.852-1.288 10.905-4.29 42.404 22.221 60.963 2.92 2.044 7.012 2.047 9.935-.004 26.439-18.56 22.244-50.054 20.957-60.959z"/><path d="m425.785 329.901h-24.136c-3.86 0-6.993 3.15-6.935 7.01.111 7.475 2.751 17.965 15.923 24.955 2.148 1.14 4.733 1.139 6.881-.003 13.266-7.06 15.381-17.689 15.202-25.175-.091-3.773-3.162-6.787-6.935-6.787z"/></g><g><path d="m192.679 259.171c-4.143 0-7.5 3.358-7.5 7.5 0 7.039-5.727 12.766-12.766 12.766s-12.766-5.727-12.766-12.766c0-4.142-3.357-7.5-7.5-7.5-15.389 0-6.411 35.266 20.266 35.266 26.757.001 35.579-35.266 20.266-35.266z"/><ellipse cx="220.153" cy="226.577" rx="12.039" ry="12.039" transform="matrix(.383 -.924 .924 .383 -73.426 343.264)"/><path d="m205.461 200.067c5.849-1.22 24.663-3.368 34.077 2.551 3.508 2.206 8.138 1.148 10.342-2.357 7.986-12.706-21.438-20.307-47.48-14.879-4.056.846-6.657 4.818-5.812 8.873.846 4.055 4.822 6.658 8.873 5.812z"/><ellipse cx="124.673" cy="226.577" rx="12.039" ry="12.039" transform="matrix(.987 -.16 .16 .987 -34.684 22.896)"/><path d="m148.237 194.255c.846-4.055-1.756-8.027-5.812-8.873-2.912-.607-28.935-5.641-45.122 4.538-3.507 2.205-4.562 6.835-2.357 10.341 2.207 3.508 6.836 4.561 10.342 2.357 9.403-5.912 27.787-3.846 34.082-2.55 4.056.842 8.023-1.759 8.867-5.813z"/><path d="m510.853 491.333c-3.364-30.714-17.894-53.576-31.501-68.714 15.774-12.861 25.277-32.375 25.277-52.831 0-42.069 1.794-54.857-7.817-75.513 13.891-19.972 11.046-44.099 9.956-53.283l-.063-.524c-.705-5.97-5.776-10.473-11.797-10.473h-44.415c-6.021 0-11.092 4.502-11.797 10.473-.279 2.363-.478 4.674-.613 6.944-5.707-1.217-11.536-1.835-17.425-1.835-14.512 0-20.924-.391-31.42 1.865-.204-2.56-.452-4.682-.725-6.974-.705-5.97-5.776-10.473-11.797-10.473h-44.416c-6.021 0-11.092 4.502-11.797 10.473-2.566 21.74.945 39.529 10.433 53.155-9.979 20.99-8.12 34.152-8.12 76.164 0 20.462 9.508 39.981 25.294 52.844-3.534 3.93-6.803 8.02-9.795 12.257-14.797-52.054-58.674-93.029-114.437-102.197 28.205-15.676 48.254-43.766 53.542-75.83 21.023-4.242 36.717-22.882 36.717-44.895 0-21.386-15.026-39.764-35.29-44.568v-44.808c5.82-7.821 10.706-16.994 14.691-27.608 5.076-11.798 6.683-14.365 6.683-20.214 0-9.98-6.399-18.412-15.098-20.973 4.832-12.738 9.097-17.609 9.097-27.014-.001-14.766-11.33-26.781-25.255-26.781h-143.827c-43.143 0-80.532 36.896-80.532 88.171 0 4.142 3.357 7.5 7.5 7.5s7.5-3.358 7.5-7.5c0-43.012 30.76-73.171 65.532-73.171h143.827c7.534 0 12.556 9.117 9.173 16.99-8.545 19.866-9.572 21.709-9.572 24.987 0 6.078 4.941 11.023 11.016 11.023 3.373 0 5.639 3.501 5.639 6.77 0 3.317-3.055 7.742-5.667 14.788-32.068 85.741-118.528 33.827-152.947 68.106v-19.579c0-8.421-7.18-15.209-15.709-14.495-17.937 1.49-35.788 5.247-47.9 18.223-1.519 1.624-3.392.088-3.392-2.223v-21.419c0-4.142-3.357-7.5-7.5-7.5s-7.5 3.358-7.5 7.5v21.419c0 11.998 10.603 20.237 21.369 17.317v10.484c-20.258 4.805-35.28 23.187-35.28 44.577 0 22.003 15.69 40.642 36.707 44.892 5.291 32.07 25.346 60.159 53.554 75.83-68.524 11.26-119.922 70.793-119.922 141.55 0 20.545 16.71 37.26 37.25 37.26h11.875c4.143 0 7.5-3.358 7.5-7.5s-3.357-7.5-7.5-7.5h-11.875c-12.269 0-22.25-9.986-22.25-22.26 0-48.423 26.568-90.621 66.211-112.513v53.366c-13.387 3.359-23.333 15.492-23.333 29.907 0 17.002 13.832 30.834 30.833 30.834 17.002 0 30.834-13.832 30.834-30.834 0-14.415-9.945-26.548-23.334-29.907v-60.421c11.174-4.391 23.132-7.272 35.636-8.382l32.029 104.487v45.723h-84.634c-4.143 0-7.5 3.358-7.5 7.5s3.357 7.5 7.5 7.5h226.26c5.957 0 11.587-1.413 16.586-3.911 3.296 2.774 7.516 4.411 11.975 4.411h106.557c4.143 0 7.5-3.358 7.5-7.5s-3.357-7.5-7.5-7.5h-105.656c9.175-11.856 8.674-24.503 6.689-40.552 4.771-9.161 10.869-17.75 18.216-25.6 17.871 8.821 27.604 7.011 75.654 7.011 10.424 0 20.676-2.416 29.989-7.014 12.46 13.327 26.319 34.036 29.395 62.114.244 2.202-1.478 4.04-3.604 4.04h-20.684c-4.143 0-7.5 3.358-7.5 7.5s3.357 7.5 7.5 7.5h20.684c11.018.001 19.731-9.58 18.516-20.666zm-232.007-308.301c27.042 9.904 26.911 48.127-.019 57.904.027-2.06.019 5.758.019-57.904zm-212.871-.008c0 63.871-.008 55.797.019 57.908-26.941-9.8-27.02-48.009-.019-57.908zm39.605 261.976c0 8.731-7.104 15.834-15.834 15.834s-15.833-7.104-15.833-15.834 7.103-15.834 15.833-15.834 15.834 7.103 15.834 15.834zm-24.079-195.61c-.724-6.666-.526-1.424-.526-102.94 7.079-4.222 16.799-6.679 30.631-7.868v19.665c0 13.54 15.899 20.389 25.096 10.553 19.872-21.289 83.477 3.892 127.144-30.648 0 109.976.2 104.546-.527 111.25-3.675 34.355-27.062 64.214-59.579 76.071-56.645 20.63-116.056-18.276-122.239-76.083zm66.071 93.642c16.247 3.889 33.393 3.895 49.673.004l-24.83 81.038zm174.241 147.369c-2.399 1.003-5.551 6.099-15.277 6.099h-126.625v-45.69l32.027-104.521c12.506 1.11 24.467 3.992 35.643 8.385v48.993c-12.693 3.328-22.086 14.896-22.086 28.618v37.715c0 4.142 3.357 7.5 7.5 7.5s7.5-3.358 7.5-7.5v-37.715c0-8.041 6.542-14.583 14.583-14.583 8.042 0 14.584 6.542 14.584 14.583v37.715c0 4.142 3.357 7.5 7.5 7.5s7.5-3.358 7.5-7.5v-37.715c0-13.72-9.39-25.287-22.081-28.617v-41.938c34.489 19.048 59.081 53.464 64.889 93.98 1.133 13.482 4.214 25.347-5.657 34.691zm131.487-245.404h38.83c2.3 20.576-1.101 39.211-18.142 51.172-.333.233-.989.233-1.324-.001-15.007-10.508-21.515-27.714-19.364-51.171zm-118.192 0h38.83c2.287 20.468-.93 39.09-18.142 51.172-.334.233-.99.233-1.324-.001-15.007-10.508-21.515-27.714-19.364-51.171zm101.449 177.862h-45.67c-29.859 0-53.071-24.695-53.071-53.07 0-41.54-1.217-49.258 4.317-64.154 1.198.974 2.444 1.914 3.738 2.82 5.546 3.883 12.997 3.884 18.544-.01 18.168-12.753 23.652-30.831 24.865-45.588 5.695-1.507 11.562-2.279 17.506-2.279 14.508 0 21.039-.484 31.55 2.326 1.99 19.683 10.592 34.956 25.727 45.551 2.772 1.941 6.019 2.911 9.266 2.911 5.653 0 9.065-2.622 12.207-5.117 5.213 14.444 4.092 21.45 4.092 63.54 0 28.486-23.318 53.07-53.071 53.07z"/><circle cx="369.399" cy="324.529" r="8.596"/><circle cx="458.043" cy="324.529" r="8.596"/><path d="m443.044 376.249c-4.143 0-7.5 3.358-7.5 7.5 0 3.952-3.215 7.167-7.167 7.167-3.86 0-7.009-3.071-7.152-6.897.001-.09.007-.179.007-.27v-15.375c12.752-6.863 19.32-17.875 18.985-31.866-.188-7.911-6.527-14.108-14.432-14.108h-24.136c-3.901 0-7.557 1.53-10.294 4.309-2.729 2.769-4.198 6.432-4.141 10.313.14 9.428 3.586 22.364 18.996 30.965v15.762c0 .091.006.18.007.27-.144 3.826-3.292 6.897-7.153 6.897-3.951 0-7.166-3.215-7.166-7.167 0-4.142-3.357-7.5-7.5-7.5s-7.5 3.358-7.5 7.5c0 12.223 9.944 22.167 22.167 22.167 5.615 0 10.746-2.103 14.656-5.557 3.91 3.454 9.041 5.557 14.657 5.557 12.223 0 22.166-9.944 22.166-22.167 0-4.142-3.358-7.5-7.5-7.5zm-17.816-38.848c.035 7.843-3.358 13.423-10.61 17.488-.292-.034-.587-.057-.887-.057-.003 0-.007 0-.01 0s-.007 0-.01 0c-.088 0-.174.01-.261.013-7.245-4.073-10.929-9.787-11.221-17.444z"/></g></g></svg>