<svg xmlns="http://www.w3.org/2000/svg" xmlns:xlink="http://www.w3.org/1999/xlink" width="41.5" height="41.5" viewBox="0 0 41.5 41.5"><defs><clipPath id="a"><rect width="41.197" height="41.197" fill="#d6d6d6" stroke="#707070" stroke-width="1"/></clipPath></defs><g transform="translate(119.5 224)"><g transform="translate(-119.5 -224)" clip-path="url(#a)"><g transform="translate(0 5.171)"><path d="M3.791,16.12H37.406a3.792,3.792,0,0,0,0-7.585H3.791a3.792,3.792,0,0,0,0,7.585Zm0-5.171H37.406a1.379,1.379,0,0,1,0,2.757H3.791a1.379,1.379,0,0,1,0-2.757Z" transform="translate(0 -8.535)" fill="#d6d6d6"/><path d="M37.406,27.74H3.791a3.792,3.792,0,0,0,0,7.585H37.406a3.792,3.792,0,0,0,0-7.585Zm0,5.171H3.791a1.379,1.379,0,0,1,0-2.757H37.406a1.379,1.379,0,0,1,0,2.757Z" transform="translate(0 -16.105)" fill="#d6d6d6"/><path d="M37.406,46.945H3.791a3.792,3.792,0,0,0,0,7.585H37.406a3.792,3.792,0,0,0,0-7.585Zm0,5.171H3.791a1.379,1.379,0,0,1,0-2.757H37.406a1.379,1.379,0,0,1,0,2.757Z" transform="translate(0 -23.675)" fill="#d6d6d6"/></g></g><path d="M68,68" transform="translate(-146 -250.5)" fill="#d6d6d6" stroke="#707070" stroke-width="1"/></g></svg>