<svg xmlns="http://www.w3.org/2000/svg" width="40" height="40" viewBox="0 0 40 40"><path d="M39.044,7.59a3.942,3.942,0,0,0-3.005-1.314H7.289L7,4.128C6.688,1.813,5.061,0,3.3,0H1.183a1.172,1.172,0,1,0,0,2.344H3.3c.38,0,1.184.795,1.358,2.094L8.041,29.6a4.726,4.726,0,0,0,1.62,2.924,4.909,4.909,0,0,0,2.271,1.119,4.248,4.248,0,0,0-.525,2.051,4.352,4.352,0,0,0,8.7,0,4.246,4.246,0,0,0-.481-1.966h6.2a4.246,4.246,0,0,0-.481,1.966,4.352,4.352,0,0,0,8.7,0,4.246,4.246,0,0,0-.481-1.966h3.1a1.172,1.172,0,1,0,0-2.344H12.8a2.532,2.532,0,0,1-2.415-2.094l-.247-1.839H33.5a4.814,4.814,0,0,0,3.14-1.2,4.727,4.727,0,0,0,1.62-2.924l1.7-12.607a3.862,3.862,0,0,0-.917-3.124Zm-21.3,28.1a1.986,1.986,0,1,1-1.985-1.966A1.978,1.978,0,0,1,17.745,35.69Zm13.942,0A1.986,1.986,0,1,1,29.7,33.724,1.978,1.978,0,0,1,31.687,35.69ZM37.263,9.134a1.564,1.564,0,0,1,.352,1.27L36.9,15.69H28.852l.476-7.07h6.71a1.6,1.6,0,0,1,1.225.514ZM20.458,25.1l-.476-7.07h6.34l-.476,7.07Zm-.634-9.414-.476-7.07h7.607l-.476,7.07ZM16.977,8.62l.476,7.07h-8.9L7.6,8.62Zm-8.1,9.414h8.738l.476,7.07H9.824ZM33.5,25.1H28.218l.476-7.07h7.894l-.67,4.977A2.532,2.532,0,0,1,33.5,25.1Zm0,0" fill="#d6d6d6"/></svg>