<svg xmlns="http://www.w3.org/2000/svg" xmlns:xlink="http://www.w3.org/1999/xlink" width="235.267" height="235.267" viewBox="0 0 235.267 235.267"><defs><clipPath id="a"><rect width="235.267" height="235.267" transform="translate(775 270)" fill="#1f2226" stroke="#707070" stroke-width="1"/></clipPath></defs><g transform="translate(-775 -270)" clip-path="url(#a)"><g transform="translate(775 270)"><path d="M176.479,209.279v-66.4a29.375,29.375,0,0,1-20.882,8.678h0v64.127c9.84,0,14.265,5.221,16.254,9.722h22.5S193.775,209.279,176.479,209.279Z" fill="#6e563d"/><path d="M116.663,150.462H73.877C68.613,159.327,60.291,166.2,52.3,171.234v39.8A14.377,14.377,0,0,0,66.678,225.41H95.222s-.575-16.131-17.871-16.131v-33.8S102.235,167.626,116.663,150.462Z" fill="#6e563d"/><path d="M202.3,28.937,193.52,17.318A34.931,34.931,0,0,0,165.652,3.449h0A26.71,26.71,0,0,0,141.02,19.83L117.135,76.787H66.916a41.2,41.2,0,0,0-22.889,6.906c-9.915-5.769-16.9-13.429-20.822-22.864-9.391-22.6,1.446-48.558,1.61-48.943A6.045,6.045,0,0,0,13.712,7.1C13.174,8.346-2.257,40.35,9.086,67.786A70.736,70.736,0,0,0,31.317,97.094a40.21,40.21,0,0,0-5.522,23.033q.039.631.092,1.272c1.086,13.294-7.389,29.586-14.406,39.33a34.514,34.514,0,0,0-6.548,20.165v36.55A14.377,14.377,0,0,0,19.31,231.82H47.854s-.575-16.131-17.871-16.131v-33.8s31.052-9.8,43.894-31.43h56.67v66.98a14.377,14.377,0,0,0,14.377,14.377h28.543s-.575-16.131-17.871-16.131V151.561h0a29.469,29.469,0,0,0,29.469-29.469V69.013h16.488a29.109,29.109,0,0,0,21.955-9.753,27.481,27.481,0,0,0,6.844-18.636Z" fill="#a58260"/><path d="M63.451,162.879h39.179a69.792,69.792,0,0,0,14.032-12.417H73.876A54.083,54.083,0,0,1,63.451,162.879Z" fill="#604b35"/><path d="M155.6,163.978a29.376,29.376,0,0,0,20.882-8.678V142.883a29.375,29.375,0,0,1-20.882,8.678Z" fill="#604b35"/><path d="M29.983,215.688v-33.8s30.98-9.779,43.849-31.357c.059-1.12.076-2.248.045-3.381l-7.884.01a12.031,12.031,0,0,0-9.479,4.708C42.576,169.843,17.565,175.9,17.565,175.9v39.873a5.455,5.455,0,0,0,4.7,5.4c12.71,1.771,13.176,10.642,13.176,10.642H47.854S47.279,215.688,29.983,215.688Z" fill="#85684a"/><path d="M172.648,117.634c0,14.278-10.155,23.547-23.636,26.258a7.212,7.212,0,0,0-5.833,7.052v66.521a3.731,3.731,0,0,0,3.385,3.713c13.988,1.3,14.486,10.641,14.486,10.641h12.417s-.575-16.131-17.871-16.131V151.561a29.469,29.469,0,0,0,29.469-29.469V65.57h-7.414a5,5,0,0,0-5,5v47.06Z" fill="#85684a"/><path d="M123.234,62.244,185.065,85.48v16.291l-67.93-24.985Z" fill="#ffdf65"/><path d="M172.648,97.2l12.417,4.567V85.48l-12.417-4.666Z" fill="#ffcd2c"/><path d="M175.786,31.338A3.449,3.449,0,1,0,169.2,33.4c.053.172,4.978,16.35-2.59,26.85a26.177,26.177,0,0,1-15.486-19.579,3.449,3.449,0,1,0-6.787,1.234A32.976,32.976,0,0,0,166.8,67.658a3.449,3.449,0,0,0,3.444-.982c5.141-5.552,7.715-13.469,7.445-22.9A50.547,50.547,0,0,0,175.786,31.338Z"/><path d="M187.3,28.491a4.946,4.946,0,1,0,4.946,4.946A4.951,4.951,0,0,0,187.3,28.491Z"/><path d="M26.9,97.99a43.655,43.655,0,0,0-4.549,22.349q.041.664.1,1.339c.419,5.131-.722,11.218-3.393,18.092a3.449,3.449,0,1,0,6.43,2.5c3.051-7.855,4.342-14.972,3.837-21.153q-.05-.606-.086-1.2a36.8,36.8,0,0,1,5.05-21.066,3.448,3.448,0,0,0-.885-4.5A67.281,67.281,0,0,1,12.273,66.468c-9.881-23.9,1.991-52.261,4.472-57.7q.1-.217.133-.3a2.6,2.6,0,1,1,4.763,2.068,82.1,82.1,0,0,0-4.5,16.259,3.449,3.449,0,1,0,6.8,1.184,75.458,75.458,0,0,1,4.049-14.728A9.495,9.495,0,0,0,10.548,5.726l-.08.178A105.9,105.9,0,0,0,3.311,28.135C.173,43.577,1.043,57.361,5.9,69.1A74.349,74.349,0,0,0,26.9,97.99Z"/><path d="M233.631,44.055c.11-1.14.17-2.286.17-3.43a3.449,3.449,0,0,0-2.122-3.184l-6.448-2.687h0l-20.738-8.641-8.218-10.874A38.581,38.581,0,0,0,165.652,0,30.091,30.091,0,0,0,137.84,18.5L119.284,62.745,59.17,1.357a3.449,3.449,0,1,0-4.928,4.827l62.147,63.464-1.547,3.689H66.916a44.633,44.633,0,0,0-22.924,6.3C35.685,74.4,29.768,67.633,26.39,59.506a49.576,49.576,0,0,1-3.555-18.45,3.449,3.449,0,0,0-3.448-3.405h-.045a3.449,3.449,0,0,0-3.4,3.493A56.419,56.419,0,0,0,20.02,62.153c4.2,10.118,11.7,18.368,22.273,24.521a3.449,3.449,0,0,0,3.645-.109,37.753,37.753,0,0,1,20.978-6.329h49.605l65.1,23.942v17.915A26.049,26.049,0,0,1,155.6,148.112a3.449,3.449,0,0,0-3.449,3.449v64.127a3.449,3.449,0,0,0,3.449,3.449c5.753,0,9.9,2.063,12.312,6.133a15.216,15.216,0,0,1,1.382,3.1H144.924A10.94,10.94,0,0,1,134,217.442v-66.98a3.449,3.449,0,0,0-3.449-3.449H73.876A3.45,3.45,0,0,0,70.91,148.7c-12,20.215-41.669,29.808-41.966,29.9a3.45,3.45,0,0,0-2.411,3.289v33.8a3.449,3.449,0,0,0,3.449,3.449c5.754,0,9.9,2.063,12.313,6.133a15.214,15.214,0,0,1,1.382,3.1H19.31A10.94,10.94,0,0,1,8.382,217.441v-36.55a30.9,30.9,0,0,1,5.9-18.149c1.707-2.37,3.36-4.916,4.913-7.569a3.449,3.449,0,1,0-5.953-3.486c-1.445,2.466-2.978,4.829-4.558,7.024a37.754,37.754,0,0,0-7.2,22.18v36.55A17.847,17.847,0,0,0,19.31,235.267H47.854A3.484,3.484,0,0,0,51.3,231.7c-.006-.183-.823-17.224-17.869-19.26V184.347a113.83,113.83,0,0,0,15.419-7.053v33.738a17.847,17.847,0,0,0,17.827,17.827H95.221a3.484,3.484,0,0,0,3.447-3.573c-.006-.183-.824-17.223-17.869-19.259V177.936c6.585-2.412,25.031-10.07,37.437-24.026h8.86v63.531a17.847,17.847,0,0,0,17.827,17.827h28.544a3.484,3.484,0,0,0,3.447-3.572,19.325,19.325,0,0,0-.406-2.837h17.841a3.485,3.485,0,0,0,3.447-3.573c-.006-.183-.823-17.223-17.869-19.259V182.595a3.449,3.449,0,0,0-6.9,0v26.683a3.449,3.449,0,0,0,3.449,3.449c9.215,0,12.546,5.413,13.749,9.233H173.934c-2.44-4.284-6.866-8.566-14.889-9.525v-57.6A32.7,32.7,0,0,0,173.029,150v18.8a3.449,3.449,0,1,0,6.9,0v-24.56a32.79,32.79,0,0,0,8.587-22.147V72.462h13.039A32.519,32.519,0,0,0,226.1,61.531a30.451,30.451,0,0,0,7.514-17.36C233.623,44.133,233.627,44.094,233.631,44.055ZM76.312,172.194a3.449,3.449,0,0,0-2.411,3.289v33.8a3.449,3.449,0,0,0,3.449,3.449c9.215,0,12.546,5.413,13.749,9.233H66.678A10.941,10.941,0,0,1,55.75,211.032V173.14c7.344-4.832,14.812-11.192,20.042-19.229h32.718C94.831,166.218,76.52,172.128,76.312,172.194Zm45.4-97.4,3.419-8.153,56.486,21.228v8.958Zm99.2-17.8a25.623,25.623,0,0,1-19.36,8.575H185.065a3.449,3.449,0,0,0-3.449,3.449V80.5L127.8,60.275l16.4-39.111A23.209,23.209,0,0,1,165.652,6.9a31.645,31.645,0,0,1,25.116,12.5l8.781,11.619a3.446,3.446,0,0,0,1.425,1.1l19.9,8.29a15.272,15.272,0,0,0,4.936,7.826A23.664,23.664,0,0,1,220.912,56.99Z"/></g></g></svg>