<svg xmlns="http://www.w3.org/2000/svg" width="134.696" height="117.813" viewBox="0 0 134.696 117.813"><g transform="translate(0.551 0.5)"><path d="M137,196.932a32.539,32.539,0,0,0-54.793,0l-14.49,22.6a20.6,20.6,0,0,0,25.629,29.97l.273-.121a40.488,40.488,0,0,1,32.24.121,20.482,20.482,0,0,0,8.265,1.749,20.745,20.745,0,0,0,4.611-.523,20.6,20.6,0,0,0,12.756-31.2Zm0,0" transform="translate(-47.635 -134.459)" fill="#d6d6d6" stroke="#000" stroke-width="1"/><path d="M23.985,135.525a15.8,15.8,0,0,0,9.221-9.782,20.406,20.406,0,0,0-.36-14.074,20.422,20.422,0,0,0-9.17-10.681A15.8,15.8,0,0,0,10.283,99.91c-8.658,3.329-12.631,14.028-8.856,23.856,3.016,7.822,10.05,12.76,17.161,12.76a14.96,14.96,0,0,0,5.4-1Zm0,0" transform="translate(0 -73.082)" fill="#d6d6d6" stroke="#000" stroke-width="1"/><path d="M144.041,44.734c10.824,0,19.63-10.033,19.63-22.364S154.865,0,144.041,0,124.414,10.035,124.414,22.37,133.219,44.734,144.041,44.734Zm0,0" transform="translate(-91.941 0)" fill="#d6d6d6" stroke="#000" stroke-width="1"/><path d="M296.018,79.974h0a16,16,0,0,0,5.055.817c7.893,0,15.586-5.745,18.521-14.575a21.933,21.933,0,0,0-.313-15.131,16.593,16.593,0,0,0-24.6-8.176,21.936,21.936,0,0,0-9.308,11.933c-3.563,10.722,1.211,22,10.643,25.132Zm0,0" transform="translate(-210.017 -29.746)" fill="#d6d6d6" stroke="#000" stroke-width="1"/><path d="M405.744,174.026l0,0c-7.464-5.514-18.627-3.124-24.887,5.33s-5.275,19.83,2.178,25.347a15.345,15.345,0,0,0,9.217,2.976,19.847,19.847,0,0,0,15.674-8.3c6.252-8.458,5.275-19.83-2.179-25.349Zm0,0" transform="translate(-278.404 -126.407)" fill="#d6d6d6" stroke="#000" stroke-width="1"/></g></svg>