<svg id="Lapiz_negro" data-name="Lapiz negro" xmlns="http://www.w3.org/2000/svg" width="17.438" height="17.438" viewBox="0 0 17.438 17.438">
  <path id="Trazado_87" data-name="Trazado 87" d="M16.973,2.832,14.6.452a1.621,1.621,0,0,0-2.243,0L1.7,11.211a.4.4,0,0,0-.1.17L.015,16.934a.4.4,0,0,0,.49.49l5.548-1.587a.4.4,0,0,0,.17-.1L16.973,5.075a1.587,1.587,0,0,0,0-2.244Zm-6.348.5,1.459,1.459L4.468,12.411l-.547-1.094a.4.4,0,0,0-.355-.219H2.932ZM.973,16.466l.516-1.807L2.78,15.95Zm4.575-1.307-1.9.542L1.738,13.788l.542-1.9H3.322L4,13.258a.4.4,0,0,0,.177.177l1.366.683v1.042Zm.793-.652v-.635a.4.4,0,0,0-.219-.355l-1.094-.547,7.617-7.617L14.1,6.814ZM16.414,4.524,14.666,6.256,11.183,2.773l1.731-1.746a.811.811,0,0,1,1.121,0L16.413,3.4a.792.792,0,0,1,0,1.12Z" transform="translate(0 -0.002)" fill="#131212"/>
</svg>
