<svg xmlns="http://www.w3.org/2000/svg" xmlns:xlink="http://www.w3.org/1999/xlink" width="235.267" height="235.267" viewBox="0 0 235.267 235.267">
  <defs>
    <clipPath id="clip-path">
      <rect id="Rectángulo_3" data-name="Rectángulo 3" width="235.267" height="235.267" transform="translate(-119.5 -224)" fill="#fff" stroke="#707070" stroke-width="1"/>
    </clipPath>
  </defs>
  <g id="Servicios" transform="translate(119.5 224)">
    <g id="Enmascarar_grupo_14" data-name="Enmascarar grupo 14" clip-path="url(#clip-path)">
      <g id="Filled_outline" data-name="Filled outline" transform="translate(-127.32 -231.839)">
        <path id="Trazado_215" data-name="Trazado 215" d="M215.607,54.882h7.84v7.84h-7.84Z" fill="#743b20"/>
        <path id="Trazado_216" data-name="Trazado 216" d="M70.562,168.565H86.243v70.562H70.562Z" fill="#f7a116"/>
        <path id="Trazado_217" data-name="Trazado 217" d="M113.684,66.642V82.323A15.681,15.681,0,0,1,98,98H74.482v15.681l8.624,11.5a15.672,15.672,0,0,1,3.082,8.1c.034.431.054.872.054,1.308v6.532H98a7.84,7.84,0,0,1,7.84,7.84v7.84h-19.6v23.521H76.834l-5.429,6.787a23.461,23.461,0,0,1,7,16.734v15.681h7.84a19.6,19.6,0,0,1,19.6,19.6H31.361a19.6,19.6,0,0,1-19.6-19.6V188.744a47.047,47.047,0,0,1,6.055-23.087l3.568-6.338a47.045,47.045,0,0,0,6.057-23.085V62.722a19.6,19.6,0,0,1,19.6-19.6H69.053a19.6,19.6,0,0,1,18.2,12.318l2.911,7.283h19.6a3.92,3.92,0,0,1,3.92,3.92Z" fill="#ffb531"/>
        <path id="Trazado_218" data-name="Trazado 218" d="M27.441,98H74.482v15.681H27.441Z" fill="#f35244"/>
        <path id="Trazado_219" data-name="Trazado 219" d="M62.722,98h11.76v15.681H62.722Z" fill="#ea4a3b"/>
        <path id="Trazado_220" data-name="Trazado 220" d="M239.128,243.048V161.392A19.654,19.654,0,0,0,223.016,142.1l-27.01-4.9V105.843H164.645V137.2L135.3,142.541a19.6,19.6,0,0,0-15.873,16.344L107.7,224.7a12.421,12.421,0,0,0-.2,2.078,12.171,12.171,0,0,0,24.07,2.548l6.066-24.932a32.632,32.632,0,0,0,7.409,15.132v23.521Z" fill="#fec9a3"/>
        <path id="Trazado_221" data-name="Trazado 221" d="M223.016,142.1l-19.7-3.574L192.87,164.645H167.781l-10.445-26.112-22.04,4.007a19.6,19.6,0,0,0-15.873,16.344L107.7,224.7a12.419,12.419,0,0,0-.2,2.078,12.171,12.171,0,0,0,24.07,2.548l6.066-24.932a32.633,32.633,0,0,0,7.409,15.132v23.521h94.083V161.392A19.654,19.654,0,0,0,223.016,142.1Z" fill="#ebebe9"/>
        <path id="Trazado_222" data-name="Trazado 222" d="M239.128,161.392v81.656H145.045V219.527a32.632,32.632,0,0,1-7.409-15.132l-6.066,24.932a12.171,12.171,0,0,1-24.07-2.548,12.42,12.42,0,0,1,.2-2.078l11.731-65.814A19.6,19.6,0,0,1,135.3,142.541l22.036-4.008,22.992,57.474,22.992-57.474,19.7,3.572a19.657,19.657,0,0,1,16.107,18.822c0,.152,0,.309,0,.465Z" fill="#4db7e5"/>
        <path id="Trazado_223" data-name="Trazado 223" d="M239.128,161.392v81.656H145.045V238.8c31.836-9.369,73.189-30.508,94.078-77.878,0,.152,0,.309,0,.466Z" fill="#48add9"/>
        <path id="Trazado_224" data-name="Trazado 224" d="M129.364,176.406H105.843a19.6,19.6,0,0,1-19.6-19.6H117.6a11.76,11.76,0,0,1,11.76,11.76Z" fill="#fec9a3"/>
        <path id="Trazado_225" data-name="Trazado 225" d="M129.364,176.406H105.843v15.681h24.435Z" fill="#ebebe9"/>
        <path id="Trazado_226" data-name="Trazado 226" d="M130.278,192.086H105.843v33.848a13.194,13.194,0,1,0,26.348-1.012Z" fill="#4db7e5"/>
        <path id="Trazado_227" data-name="Trazado 227" d="M182.69,125.444a21.509,21.509,0,0,0,13.317-4.807V105.843H164.645v14.794a21.509,21.509,0,0,0,13.317,4.807Z" fill="#feb784"/>
        <circle id="Elipse_63" data-name="Elipse 63" cx="19.601" cy="19.601" r="19.601" transform="translate(199.926 11.76)" fill="#61311b"/>
        <path id="Trazado_228" data-name="Trazado 228" d="M215.607,54.882V82.323a35.281,35.281,0,0,1-33.973,35.257c-.431.015-.872.025-1.309.025a35.283,35.283,0,0,1-35.281-35.278V54.882a31.361,31.361,0,0,1,31.361-31.361h7.84a31.33,31.33,0,0,1,31.361,31.361Z" fill="#fec9a3"/>
        <path id="Trazado_229" data-name="Trazado 229" d="M215.607,54.882V82.323a35.281,35.281,0,0,1-33.973,35.257,43.068,43.068,0,0,0,18.292-35.257V50.962a42.926,42.926,0,0,0-9.34-26.8,31.368,31.368,0,0,1,25.02,30.719Z" fill="#fec093"/>
        <path id="Trazado_230" data-name="Trazado 230" d="M223.447,50.962V58.8h-7.84a46.141,46.141,0,0,1-22.193-24.119l-1.328-3.322-9.109,11.716a115.833,115.833,0,0,1-20.644,20.566A115.927,115.927,0,0,1,137.2,78.4V50.962a39.2,39.2,0,0,1,37.654-39.167c.513-.024,1.028-.034,1.547-.034h7.84a39.2,39.2,0,0,1,39.2,39.2Z" fill="#7a432a"/>
        <path id="Trazado_231" data-name="Trazado 231" d="M215.607,58.8h3.92a11.76,11.76,0,1,1,0,23.521h-3.92Z" fill="#feb784"/>
        <path id="Trazado_232" data-name="Trazado 232" d="M223.447,50.962V58.8h-7.84a46.118,46.118,0,0,1-16.019-13.25,43.189,43.189,0,0,0-24.731-33.757c.515-.025,1.029-.034,1.548-.034h7.84a39.2,39.2,0,0,1,39.2,39.2Z" fill="#743b20"/>
        <path id="Trazado_233" data-name="Trazado 233" d="M223.715,138.247l-8.108-1.47v-3.493A15.7,15.7,0,0,0,199.926,117.6v-1.33a38.921,38.921,0,0,0,19.4-30.031h.2a15.675,15.675,0,0,0,7.84-29.251V53.538a23.518,23.518,0,1,0-22.585-40.486A42.858,42.858,0,0,0,184.246,7.84h-7.84a43.17,43.17,0,0,0-43.121,43.121V78.4a3.92,3.92,0,0,0,5.464,3.6c.8-.343,1.586-.7,2.376-1.064v1.38a38.964,38.964,0,0,0,19.6,33.951v1.33a15.7,15.7,0,0,0-15.68,15.681v3.5l-10.449,1.9a23.576,23.576,0,0,0-17.541,14.2h-7.291v-3.92A11.774,11.774,0,0,0,98,137.2h-7.84v-2.612a19.739,19.739,0,0,0-3.92-11.76L78.4,112.377V101.923H98a19.623,19.623,0,0,0,19.6-19.6v-19.6a3.92,3.92,0,0,0-3.92-3.92H92.817l-1.926-4.815A23.407,23.407,0,0,0,69.052,39.2H47.042A23.547,23.547,0,0,0,23.521,62.722v73.512A43.206,43.206,0,0,1,17.968,157.4L14.4,163.731A51.069,51.069,0,0,0,7.84,188.744v34.7a19.623,19.623,0,0,0,19.6,19.6h78.4a3.92,3.92,0,0,0,3.766-2.842,17.1,17.1,0,0,0,26.482-12.885l2.375-9.762a35.939,35.939,0,0,0,2.325,3.378l.332,22.17,7.84-.118-.353-23.521a3.92,3.92,0,0,0-.921-2.466,28.119,28.119,0,0,1-6.192-13.279,3.92,3.92,0,0,0-6.732-2l-.467-8.014a15.681,15.681,0,1,0,18.585-20.726V143.33l2-.364,21.519,53.8v46.287h7.84V196.761l21.521-53.8,2,.363v21.718a19.634,19.634,0,0,0-15.681,19.208v19.6a3.92,3.92,0,0,0,3.92,3.92h7.84v-7.84h-3.92V184.246a11.759,11.759,0,1,1,23.518-.165c-.315-.617-.642-1.228-1-1.828l-6.751,3.986c5.618,9.516,4.376,21.881-3.091,30.767a3.92,3.92,0,0,0-.919,2.522v23.521h7.84V220.91a35.887,35.887,0,0,0,6.419-13.143h1.421a3.92,3.92,0,0,0,3.92-3.92v-19.6a19.634,19.634,0,0,0-15.681-19.206V144.745l6.7,1.215a15.727,15.727,0,0,1,12.9,15.432v81.656h7.84V161.392a23.57,23.57,0,0,0-19.333-23.144ZM219.527,78.4V62.722a7.84,7.84,0,1,1,0,15.681Zm0-62.722a15.681,15.681,0,0,1,7.448,29.479,43.114,43.114,0,0,0-15.252-27.406A15.544,15.544,0,0,1,219.527,15.681Zm-78.4,35.281a35.321,35.321,0,0,1,35.281-35.281h7.84a35.321,35.321,0,0,1,35.281,35.281v3.92h-2.973a42.144,42.144,0,0,1-19.5-21.653l-1.329-3.324a3.92,3.92,0,0,0-6.734-.951L179.88,40.671A112.156,112.156,0,0,1,141.125,72.28Zm7.84,31.361V77.036c3-1.638,5.913-3.413,8.755-5.3a5.874,5.874,0,1,0,9.439-6.943,119.621,119.621,0,0,0,18.911-19.312l4.988-6.414a49.962,49.962,0,0,0,20.63,22.082V82.323a31.361,31.361,0,0,1-62.722,0ZM78.719,184.246h3.6v19.6A27.294,27.294,0,0,0,76.517,187Zm11.444-3.92v-6.009a23.452,23.452,0,0,0,11.76,5.676v41.622a23.455,23.455,0,0,0-11.76-5.675Zm19.6,0h15.9l.457,7.84H109.764Zm15.681-7.84h-19.6a15.709,15.709,0,0,1-15.185-11.76H117.6a7.85,7.85,0,0,1,7.84,7.84ZM70.562,109.764h-39.2v-7.84h39.2Zm-39.2-47.042A15.7,15.7,0,0,1,47.042,47.042H69.052A15.606,15.606,0,0,1,83.611,56.9l2.912,7.28a3.92,3.92,0,0,0,3.64,2.464h11.76v3.92a3.92,3.92,0,0,0,3.92,3.92h3.92v7.84A11.774,11.774,0,0,1,98,94.083h-7.84A11.774,11.774,0,0,1,78.4,82.323h-7.84a19.5,19.5,0,0,0,3.931,11.76H52.775a15.582,15.582,0,0,0,2.107-7.84v-19.6h-7.84v19.6a7.84,7.84,0,0,1-15.681,0ZM74.15,235.208a23.555,23.555,0,0,0-23.188-19.6H27.441v7.84H50.962a15.709,15.709,0,0,1,15.185,11.76H27.441a11.756,11.756,0,0,1-11.76-11.76v-34.7a43.219,43.219,0,0,1,5.552-21.169l3.567-6.334a51.06,51.06,0,0,0,6.561-25.007V117.6H72.522l7.448,9.931a11.849,11.849,0,0,1,2.352,7.056V137.2H78.4a11.774,11.774,0,0,0-11.76,11.76v15.681h7.84V148.965a3.925,3.925,0,0,1,3.92-3.92H98a3.925,3.925,0,0,1,3.92,3.92v3.92H86.243a3.92,3.92,0,0,0-3.92,3.92v19.6H50.962V141.125h-7.84v39.2a3.92,3.92,0,0,0,3.92,3.92h7.84a19.623,19.623,0,0,1,19.6,19.6v15.681a3.92,3.92,0,0,0,3.92,3.92h7.84a15.709,15.709,0,0,1,15.185,11.76Zm51.691-2.972a9.177,9.177,0,0,1-6.8,2.972,9.284,9.284,0,0,1-9.274-9.274V196.006h16.816l1.7,29.144,0,.072a9.177,9.177,0,0,1-2.442,7.013Zm30.964-44.069a7.84,7.84,0,1,1-7.84-7.84A7.84,7.84,0,0,1,156.805,188.166Zm-11.76-15.184a15.736,15.736,0,0,0-11.29,11.376l-.47-15.793a15.693,15.693,0,0,0-8.424-13.894A15.715,15.715,0,0,1,136,146.4l9.045-1.647Zm7.84-39.7a7.85,7.85,0,0,1,7.84-7.84v8.489l-7.84,1.425Zm20.687,35.281H187.08l-6.754,16.885Zm16.645-7.84H170.435l-7.677-19.193,2.588-.471a3.92,3.92,0,0,0,3.219-3.857V119.73a39.44,39.44,0,0,0,23.521,0V137.2a3.92,3.92,0,0,0,3.219,3.857l2.588.469Zm9.71-26.793v-8.488a7.85,7.85,0,0,1,7.84,7.84v2.07Z"/>
        <path id="Trazado_234" data-name="Trazado 234" d="M197.966,74.482a5.88,5.88,0,1,0-5.88-5.88A5.88,5.88,0,0,0,197.966,74.482Z"/>
        <path id="Trazado_235" data-name="Trazado 235" d="M180.326,98a11.774,11.774,0,0,0,11.76-11.76h-7.84a3.92,3.92,0,1,1-7.84,0h-7.84A11.774,11.774,0,0,0,180.326,98Z"/>
        <path id="Trazado_236" data-name="Trazado 236" d="M160.725,199.926h7.84v7.84h-7.84Z"/>
        <path id="Trazado_237" data-name="Trazado 237" d="M160.725,235.208h7.84v7.84h-7.84Z"/>
        <path id="Trazado_238" data-name="Trazado 238" d="M68.6,70.562a5.88,5.88,0,1,0-5.88-5.88,5.88,5.88,0,0,0,5.88,5.88Z"/>
      </g>
    </g>
  </g>
</svg>
